<?xml version="1.0" encoding="utf-8"?>
<!-- Generator: Adobe Illustrator 16.0.0, SVG Export Plug-In . SVG Version: 6.00 Build 0)  -->
<!DOCTYPE svg PUBLIC "-//W3C//DTD SVG 1.1//EN" "http://www.w3.org/Graphics/SVG/1.1/DTD/svg11.dtd">
<svg xmlns="http://www.w3.org/2000/svg" xmlns:xlink="http://www.w3.org/1999/xlink" version="1.1" id="Layer_1" x="0px" y="0px" width="512px" height="512px" viewBox="0 0 512 512" enable-background="new 0 0 512 512" xml:space="preserve">
<path d="M494.749,289.312c-5.046-7.793-13.701-12.504-22.987-12.504H347.776l140.202-168.167c0.662-0.798,1.333-1.676,1.925-2.538  c10.171-14.964,6.299-35.324-8.655-45.496c-14.955-10.171-35.315-6.307-45.488,8.655L294.583,276.808h-28.041L407.151,59.872  c0.59-0.909,1.174-1.9,1.678-2.906c8.231-16.113,1.851-35.833-14.252-44.057c-16.113-8.24-35.833-1.853-44.067,14.259  L222.946,276.808H36.381c-9.286,0-17.941,4.711-22.988,12.504c-5.046,7.808-5.797,17.629-1.987,26.109L82.54,473.688  c7.321,16.303,23.521,26.78,41.39,26.78h260.283c17.87,0,34.069-10.477,41.39-26.78l71.133-158.266  C500.544,306.941,499.794,297.12,494.749,289.312z" fill="#FFFFFF"/>
</svg>
