<?xml version="1.0" encoding="utf-8"?>
<!-- Generator: Adobe Illustrator 16.0.0, SVG Export Plug-In . SVG Version: 6.00 Build 0)  -->
<!DOCTYPE svg PUBLIC "-//W3C//DTD SVG 1.1//EN" "http://www.w3.org/Graphics/SVG/1.1/DTD/svg11.dtd">
<svg xmlns="http://www.w3.org/2000/svg" xmlns:xlink="http://www.w3.org/1999/xlink" version="1.1" id="Layer_1" x="0px" y="0px" width="512px" height="512px" viewBox="0 0 512 512" enable-background="new 0 0 512 512" xml:space="preserve">
<g>
	<path d="M472.584,362.525c0-92.173-83.178-168.069-190.559-179.147c7.788-7.259,12.73-17.53,12.73-29.022   c0-21.959-17.801-39.762-39.768-39.762c-21.967,0-39.77,17.803-39.77,39.762c0,11.492,4.942,21.763,12.731,29.022   C120.567,194.456,37.391,270.352,37.391,362.525C37.391,362.542,472.584,362.542,472.584,362.525z M191.516,238.814   c-30.582,9.793-56.49,28.058-72.962,51.434c-2.38,3.392-6.17,5.19-10.008,5.19c-2.437,0-4.897-0.716-7.038-2.229   c-5.518-3.886-6.838-11.528-2.954-17.038c19.523-27.707,49.889-49.252,85.511-60.637c6.457-2.071,13.312,1.497,15.373,7.914   C201.491,229.881,197.948,236.76,191.516,238.814z" fill="#FFFFFF"/>
	<path d="M478.517,380.265H31.459C17.948,380.265,7,391.221,7,404.724s10.948,24.458,24.459,24.458h447.058   c13.511,0,24.458-10.956,24.458-24.458S492.027,380.265,478.517,380.265z" fill="#FFFFFF"/>
</g>
</svg>
